<svg width="24" height="24" viewBox="0 0 24 24" fill="none" xmlns="http://www.w3.org/2000/svg">
<mask id="mask0_248_182" style="mask-type:alpha" maskUnits="userSpaceOnUse" x="3" y="0" width="24" height="24">
<rect x="3" width="24" height="24" fill="#D9D9D9"/>
</mask>
<g mask="url(#mask0_248_182)">
<path d="M18.325 16.275C18.1417 16.0583 18.05 15.8125 18.05 15.5375C18.05 15.2625 18.1417 15.0333 18.325 14.85L20.175 13H13C12.7167 13 12.4792 12.9042 12.2875 12.7125C12.0958 12.5208 12 12.2833 12 12C12 11.7167 12.0958 11.4792 12.2875 11.2875C12.4792 11.0958 12.7167 11 13 11H20.175L18.325 9.15C18.125 8.95 18.025 8.7125 18.025 8.4375C18.025 8.1625 18.125 7.925 18.325 7.725C18.5083 7.525 18.7375 7.425 19.0125 7.425C19.2875 7.425 19.5167 7.51667 19.7 7.7L23.3 11.3C23.4 11.4 23.4708 11.5083 23.5125 11.625C23.5542 11.7417 23.575 11.8667 23.575 12C23.575 12.1333 23.5542 12.2583 23.5125 12.375C23.4708 12.4917 23.4 12.6 23.3 12.7L19.7 16.3C19.4833 16.5167 19.2458 16.6125 18.9875 16.5875C18.7292 16.5625 18.5083 16.4583 18.325 16.275ZM8 21C7.45 21 6.97917 20.8042 6.5875 20.4125C6.19583 20.0208 6 19.55 6 19V5C6 4.45 6.19583 3.97917 6.5875 3.5875C6.97917 3.19583 7.45 3 8 3H14C14.2833 3 14.5208 3.09583 14.7125 3.2875C14.9042 3.47917 15 3.71667 15 4C15 4.28333 14.9042 4.52083 14.7125 4.7125C14.5208 4.90417 14.2833 5 14 5H8V19H14C14.2833 19 14.5208 19.0958 14.7125 19.2875C14.9042 19.4792 15 19.7167 15 20C15 20.2833 14.9042 20.5208 14.7125 20.7125C14.5208 20.9042 14.2833 21 14 21H8Z" fill="#BA1A1A"/>
</g>
</svg>
