<svg width="31" height="40" viewBox="0 0 31 40" fill="none" xmlns="http://www.w3.org/2000/svg">
<path d="M30.764 12.8986C29.6494 17.1259 27.3103 20.4189 23.9363 22.0336L13.6217 26.9695C12.0845 27.7055 11.6013 28.6206 11.2342 30.5915L9.61426 39.2396L12.7583 39.2355C14.471 39.2335 15.0187 37.9924 15.4464 35.9354L16.1544 32.5422C16.5327 30.7221 16.8756 30.2696 18.3775 29.5357L23.5802 26.9847C25.7237 25.936 27.5403 24.2687 28.786 22.0528C30.1961 19.5403 30.886 16.3424 30.764 12.8986Z" fill="#8FC7B8"/>
<path d="M8.76301 29.7958C9.25423 27.0454 10.2932 25.3741 12.4931 24.3436L22.4839 19.6496C26.9704 17.543 29.3902 12.602 29.4064 7.66298C29.4275 1.67018 25.4453 -1.23815 21.1161 0.49693L15.6159 2.70475C13.2445 3.65428 12.2903 5.15349 11.7547 8.13876L10.4263 15.5832L10.4334 15.5801C11.2211 12.5716 12.5455 10.9297 14.585 10.0014L18.6822 8.13471C20.8277 7.15885 21.9251 7.70043 21.9846 9.49726C22.0471 11.5067 20.5523 13.2954 18.3373 14.331L5.95287 20.1304C3.1982 21.4181 1.8355 23.3677 1.19197 26.9847L0.0884865 33.184C-0.301867 35.3857 0.648296 36.2887 1.9757 36.2857L7.60809 36.2786" fill="#009475"/>
</svg>
