<svg width="100" height="40" viewBox="0 0 100 40" fill="none" xmlns="http://www.w3.org/2000/svg">
<path d="M100 16.5783L99.3343 20.1821H94.8518L95.5165 16.5783H100ZM91.8611 36.4001L94.4453 22.3859H98.9278L96.3436 36.4001H91.8611ZM80.559 36.4001L78.3793 22.3859H83.1876L84.168 31.2192H84.2578L88.5204 22.3859H92.9847L85.6376 36.4001H80.559ZM77.0569 22.2178L77.0942 22.2229L77.1194 22.23L77.1144 22.2613L76.4224 26.0635L76.4164 26.1101L76.3771 26.0959C75.9847 25.9633 75.5832 25.8773 75.1889 25.8469C75.1092 25.8418 75.0315 25.8378 74.9548 25.8358C74.8782 25.8327 74.8005 25.8337 74.7239 25.8378H74.7087C73.4227 25.8874 72.2153 26.5413 71.4548 27.8877C71.3085 28.1489 71.1764 28.4384 71.0634 28.7562C70.9514 29.0731 70.8586 29.4173 70.7891 29.7908L70.786 29.8121L69.5716 36.4001H65.0881L67.6713 22.3859H71.7624L71.4729 23.9549C71.9621 23.384 72.4725 22.9315 73.1201 22.6126C73.7737 22.2947 74.5655 22.1065 75.6206 22.0629C76.1259 22.0427 76.6353 22.1378 77.0569 22.2178ZM35.8136 36.4001L39.2723 17.6483H47.2478H47.2468C48.437 17.6483 49.4406 17.8568 50.2072 18.3154C51.0686 18.8256 51.6627 19.7043 51.8816 20.834C52.0531 21.7198 51.9895 22.6976 51.812 23.6603C51.5185 25.2577 50.7832 26.847 49.5778 27.9869C49.4043 28.1519 49.2238 28.3037 49.0392 28.4445H49.0362C48.551 28.818 48.0144 29.1116 47.4455 29.3262C47.3335 29.3667 47.2236 29.4061 47.1086 29.4426C46.4157 29.6633 45.6733 29.7736 44.9077 29.7736H41.6669L40.4454 36.4001H35.8136ZM45.5169 21.3493H43.2202L42.3669 25.9765H44.6646C45.2789 25.9765 45.876 25.775 46.3561 25.3833C46.8353 24.9925 47.1974 24.4074 47.3396 23.6371V23.636C47.4838 22.8545 47.3366 22.2846 47.0007 21.9081C46.6618 21.5325 46.1332 21.3493 45.5179 21.3493H45.5169ZM62.634 34.7116C62.5684 35.2785 62.5311 35.8403 62.5281 36.4001H58.208C58.214 36.2968 58.2201 36.1875 58.2241 36.0843C58.2332 35.9162 58.2453 35.7067 58.2544 35.5002H58.2433C57.5543 35.9223 56.3853 36.3525 55.1921 36.5813C54.6716 36.6795 54.1521 36.7422 53.6427 36.7463C52.2619 36.7605 50.8457 36.3647 50.3525 34.9404C50.2667 34.7025 50.2123 34.4332 50.186 34.1356L50.183 34.1143V34.1133C50.1064 33.1456 50.3162 32.0239 50.8306 31.0805C51.0353 30.7039 51.2825 30.3668 51.574 30.0712L51.575 30.0692C51.9351 29.7098 52.3476 29.4112 52.8035 29.1571C54.6232 28.1418 56.579 27.9869 58.444 27.4443C58.9433 27.2985 59.6504 26.9999 59.7442 26.3095C59.9045 25.1201 58.1051 25.2021 57.4505 25.2324C56.7363 25.2598 55.7055 25.4076 54.6776 25.7021C54.4779 25.7619 54.2752 25.8256 54.0785 25.8955C53.8566 25.9724 53.6377 26.0564 53.4188 26.1496L54.0513 22.7391C55.5632 22.1601 57.4484 22.0305 58.7113 22.0305C59.731 22.0255 60.7538 22.065 61.707 22.315C62.7369 22.5883 63.4349 23.0924 63.8161 23.8517C64.1964 24.6139 64.26 25.6262 64.0209 26.926L62.8892 33.0646C62.7883 33.6132 62.7006 34.1619 62.634 34.7116ZM58.6689 32.438L59.1158 29.9892C58.5065 30.3891 57.397 30.5591 56.5588 30.8092C55.6621 31.0805 54.6181 31.6301 54.6252 32.7933C54.6252 32.8348 54.6272 32.8722 54.6322 32.9107C54.7321 33.7722 55.8356 33.6902 56.4801 33.5333C57.2074 33.3531 57.9911 32.938 58.6689 32.438Z" fill="#231F20"/>
<path d="M43.5188 4.94496C43.0074 4.70505 42.3215 4.44185 41.1938 4.44185C37.9237 4.44185 36.6437 7.35423 36.6447 9.50232C36.6478 12.276 38.191 13.509 40.2124 13.509C41.1111 13.509 41.678 13.3693 42.1773 13.2428L43.0548 8.56088H40.4141L40.1983 9.58938H41.7829L41.2876 12.2892C41.0577 12.3762 40.6118 12.4015 40.3859 12.4015C38.9062 12.4015 37.7966 11.4854 37.7966 9.56508C37.7956 7.50708 38.9142 5.54829 41.215 5.54829C42.0633 5.54829 42.7351 5.77403 43.193 6.02407" fill="#231F20"/>
<path d="M44.0656 13.3572H45.0884L45.6614 10.2049C45.8026 9.4163 46.4189 7.83306 47.6797 7.83306C47.7564 7.83306 47.9177 7.87052 48.1154 7.95758L48.3424 6.91592C48.1457 6.82785 47.9732 6.80356 47.8764 6.80356C46.9081 6.80356 46.3119 7.36943 45.9851 7.97074H45.966L46.1385 6.9554H45.1822C45.1379 7.32995 45.0733 7.67008 45.0289 7.93429" fill="#231F20"/>
<path d="M54.2518 6.9554H53.231L52.646 10.1806C52.5058 10.9712 51.8865 12.5534 50.6277 12.5534C49.9993 12.5534 49.617 12.0523 49.617 11.3862C49.617 11.2465 49.6372 10.9955 49.6705 10.7819L50.3523 6.9554H49.3315L48.7263 10.3284C48.6598 10.6948 48.5942 11.122 48.5942 11.4966C48.5952 12.8541 49.3668 13.509 50.4421 13.509C51.4094 13.509 52.0065 12.9411 52.3333 12.3398H52.3555L52.181 13.3572H53.1372C53.1786 12.9816 53.2452 12.6415 53.2885 12.3752" fill="#231F20"/>
<path d="M54.377 15.9942H55.3988L56.0595 12.4016H56.0807C56.3429 13.1294 56.9178 13.509 57.8852 13.509C59.732 13.509 60.6761 11.5856 60.6731 9.23914C60.6721 7.85736 59.9438 6.80356 58.6951 6.80356C57.9225 6.80356 57.1307 7.12851 56.7282 7.93429H56.708L56.8936 6.9554H55.9354C55.8598 7.6549 55.7498 8.35845 55.6449 9.07515L54.377 15.9942ZM56.3611 10.8689C56.3611 9.28976 57.1529 7.75714 58.3481 7.75714C59.0522 7.75714 59.5858 8.25924 59.5878 9.33936C59.5878 10.9327 58.9049 12.5534 57.7439 12.5534C56.8079 12.5534 56.3631 11.7355 56.3611 10.8689Z" fill="#231F20"/>
<path d="M61.6949 10.6564C61.6949 12.5534 62.6976 13.509 64.2156 13.509C66.2067 13.509 67.3122 11.7739 67.3102 9.60155C67.3102 7.8442 66.3419 6.80356 64.8541 6.80356C62.8216 6.80356 61.6939 8.52244 61.6949 10.6564ZM62.7813 10.7444C62.7793 9.4163 63.4541 7.75714 64.8097 7.75714C65.7347 7.75714 66.2239 8.64898 66.2259 9.60155C66.2259 11.0461 65.3584 12.5534 64.2055 12.5534C63.2402 12.5534 62.7823 11.7618 62.7813 10.7444Z" fill="#231F20"/>
<path d="M30.764 12.8986C29.6494 17.1259 27.3103 20.4189 23.9364 22.0336L13.6217 26.9695C12.0845 27.7055 11.6014 28.6206 11.2342 30.5915L9.61432 39.2396L12.7583 39.2355C14.471 39.2335 15.0187 37.9924 15.4464 35.9354L16.1545 32.5422C16.5328 30.7221 16.8757 30.2696 18.3776 29.5357L23.5803 26.9847C25.7237 25.936 27.5403 24.2687 28.786 22.0528C30.1961 19.5403 30.8861 16.3424 30.764 12.8986Z" fill="#8FC7B8"/>
<path d="M8.76301 29.7958C9.25423 27.0454 10.2932 25.3741 12.4931 24.3436L22.4839 19.6496C26.9704 17.543 29.3902 12.602 29.4064 7.66298C29.4275 1.67018 25.4453 -1.23815 21.1161 0.49693L15.6159 2.70475C13.2445 3.65428 12.2903 5.15349 11.7547 8.13876L10.4263 15.5832L10.4334 15.5801C11.2211 12.5716 12.5455 10.9297 14.585 10.0014L18.6822 8.13471C20.8277 7.15885 21.9251 7.70043 21.9846 9.49726C22.0471 11.5067 20.5523 13.2954 18.3373 14.331L5.95287 20.1304C3.1982 21.4181 1.8355 23.3677 1.19197 26.9847L0.0884865 33.184C-0.301867 35.3857 0.648296 36.2887 1.9757 36.2857L7.60809 36.2786" fill="#009475"/>
</svg>
