<svg width="24" height="25" viewBox="0 0 24 25" fill="none" xmlns="http://www.w3.org/2000/svg">
<mask id="mask0_28_275" style="mask-type:alpha" maskUnits="userSpaceOnUse" x="0" y="0" width="24" height="25">
<rect y="0.0429688" width="24" height="24" fill="#D9D9D9"/>
</mask>
<g mask="url(#mask0_28_275)">
<path d="M7 22.043C6.45 22.043 5.97917 21.8471 5.5875 21.4555C5.19583 21.0638 5 20.593 5 20.043C5 19.493 5.19583 19.0221 5.5875 18.6305C5.97917 18.2388 6.45 18.043 7 18.043C7.55 18.043 8.02083 18.2388 8.4125 18.6305C8.80417 19.0221 9 19.493 9 20.043C9 20.593 8.80417 21.0638 8.4125 21.4555C8.02083 21.8471 7.55 22.043 7 22.043ZM17 22.043C16.45 22.043 15.9792 21.8471 15.5875 21.4555C15.1958 21.0638 15 20.593 15 20.043C15 19.493 15.1958 19.0221 15.5875 18.6305C15.9792 18.2388 16.45 18.043 17 18.043C17.55 18.043 18.0208 18.2388 18.4125 18.6305C18.8042 19.0221 19 19.493 19 20.043C19 20.593 18.8042 21.0638 18.4125 21.4555C18.0208 21.8471 17.55 22.043 17 22.043ZM6.15 6.04297L8.55 11.043H15.55L18.3 6.04297H6.15ZM5.2 4.04297H19.95C20.3333 4.04297 20.625 4.2138 20.825 4.55547C21.025 4.89714 21.0333 5.24297 20.85 5.59297L17.3 11.993C17.1167 12.3263 16.8708 12.5846 16.5625 12.768C16.2542 12.9513 15.9167 13.043 15.55 13.043H8.1L7 15.043H18C18.2833 15.043 18.5208 15.1388 18.7125 15.3305C18.9042 15.5221 19 15.7596 19 16.043C19 16.3263 18.9042 16.5638 18.7125 16.7555C18.5208 16.9471 18.2833 17.043 18 17.043H7C6.25 17.043 5.68333 16.7138 5.3 16.0555C4.91667 15.3971 4.9 14.743 5.25 14.093L6.6 11.643L3 4.04297H2C1.71667 4.04297 1.47917 3.94714 1.2875 3.75547C1.09583 3.5638 1 3.3263 1 3.04297C1 2.75964 1.09583 2.52214 1.2875 2.33047C1.47917 2.1388 1.71667 2.04297 2 2.04297H3.625C3.80833 2.04297 3.98333 2.09297 4.15 2.19297C4.31667 2.29297 4.44167 2.43464 4.525 2.61797L5.2 4.04297Z" fill="#1C1B1F"/>
</g>
</svg>
