<svg width="19" height="18" viewBox="0 0 19 18" fill="none" xmlns="http://www.w3.org/2000/svg">
<mask id="mask0_248_295" style="mask-type:alpha" maskUnits="userSpaceOnUse" x="0" y="0" width="19" height="18">
<rect x="0.5" width="18" height="18" fill="#D9D9D9"/>
</mask>
<g mask="url(#mask0_248_295)">
<path d="M11.9937 12.2063C11.8562 12.0438 11.7875 11.8594 11.7875 11.6531C11.7875 11.4469 11.8562 11.275 11.9937 11.1375L13.3813 9.75H8C7.7875 9.75 7.60938 9.67813 7.46562 9.53438C7.32188 9.39063 7.25 9.2125 7.25 9C7.25 8.7875 7.32188 8.60938 7.46562 8.46563C7.60938 8.32188 7.7875 8.25 8 8.25H13.3813L11.9937 6.8625C11.8438 6.7125 11.7688 6.53438 11.7688 6.32812C11.7688 6.12188 11.8438 5.94375 11.9937 5.79375C12.1312 5.64375 12.3031 5.56875 12.5094 5.56875C12.7156 5.56875 12.8875 5.6375 13.025 5.775L15.725 8.475C15.8 8.55 15.8531 8.63125 15.8844 8.71875C15.9156 8.80625 15.9313 8.9 15.9313 9C15.9313 9.1 15.9156 9.19375 15.8844 9.28125C15.8531 9.36875 15.8 9.45 15.725 9.525L13.025 12.225C12.8625 12.3875 12.6844 12.4594 12.4906 12.4406C12.2969 12.4219 12.1312 12.3438 11.9937 12.2063ZM4.25 15.75C3.8375 15.75 3.48438 15.6031 3.19063 15.3094C2.89688 15.0156 2.75 14.6625 2.75 14.25V3.75C2.75 3.3375 2.89688 2.98438 3.19063 2.69063C3.48438 2.39688 3.8375 2.25 4.25 2.25H8.75C8.9625 2.25 9.14063 2.32187 9.28438 2.46562C9.42813 2.60938 9.5 2.7875 9.5 3C9.5 3.2125 9.42813 3.39062 9.28438 3.53437C9.14063 3.67813 8.9625 3.75 8.75 3.75H4.25V14.25H8.75C8.9625 14.25 9.14063 14.3219 9.28438 14.4656C9.42813 14.6094 9.5 14.7875 9.5 15C9.5 15.2125 9.42813 15.3906 9.28438 15.5344C9.14063 15.6781 8.9625 15.75 8.75 15.75H4.25Z" fill="white"/>
</g>
</svg>
